<?xml version="1.0" encoding="UTF-8"?>
<!DOCTYPE svg PUBLIC "-//W3C//DTD SVG 1.1//EN" "http://www.w3.org/Graphics/SVG/1.1/DTD/svg11.dtd">
<svg version="1.1" xmlns="http://www.w3.org/2000/svg" xmlns:xlink="http://www.w3.org/1999/xlink" x="0" y="0" width="512" height="512" viewBox="0, 0, 512, 512">
  <defs>
    <clipPath id="Clip_1">
      <path d="M49,45 L463,45 L463,467 L49,467 z M364.967,52 L147.033,52 C94.548,52 52,94.548 52,147.033 L52,364.967 C52,417.452 94.548,460 147.033,460 L364.967,460 C417.452,460 460,417.452 460,364.967 L460,147.033 C460,94.548 417.452,52 364.967,52 z"/>
    </clipPath>
    <filter id="Shadow_2">
      <feGaussianBlur in="SourceAlpha" stdDeviation="1"/>
      <feOffset dx="0" dy="4" result="offsetblur"/>
      <feFlood flood-color="#000000"/>
      <feComposite in2="offsetblur" operator="in"/>
    </filter>
    <linearGradient id="Gradient_1" gradientUnits="userSpaceOnUse" x1="256" y1="52" x2="256" y2="460">
      <stop offset="0" stop-color="#D365BF"/>
      <stop offset="0.997" stop-color="#6A3375"/>
    </linearGradient>
    <clipPath id="Clip_3">
      <path d="M256.5,110.497 L259.5,112.229 L378.21,180.767 L381.21,182.499 L381.21,326.501 L378.21,328.233 L259.5,396.77 L256.5,398.502 L253.5,396.77 L134.79,328.233 L131.79,326.501 L131.79,182.499 L134.79,180.767 L253.5,112.229 L256.5,110.497 z M256.5,160.145 C204.12,160.145 161.669,202.396 161.669,254.5 C161.669,306.604 204.12,348.855 256.5,348.855 C308.88,348.855 351.331,306.604 351.331,254.5 C351.13,211.86 321.616,173.692 280.202,163.116 C271.97,161.014 269.838,161.121 261.38,160.268 L256.5,160.145 z"/>
    </clipPath>
    <filter id="InnerShadow_4">
      <feGaussianBlur in="SourceAlpha" stdDeviation="2.5"/>
      <feOffset dx="0" dy="2" result="offsetblur"/>
      <feFlood flood-color="#000000"/>
      <feComposite in2="offsetblur" operator="in"/>
    </filter>
  </defs>
  <g id="Layer_2">
    <g>
      <path d="M364.967,52 C417.452,52 460,94.548 460,147.033 L460,364.967 C460,417.452 417.452,460 364.967,460 L147.033,460 C94.548,460 52,417.452 52,364.967 L52,147.033 C52,94.548 94.548,52 147.033,52 L364.967,52 z" clip-path="url(#Clip_1)" filter="url(#Shadow_2)" fill="rgba(0,0,0,0.75)"/>
      <path d="M147.033,52 L364.967,52 C417.452,52 460,94.548 460,147.033 L460,364.967 C460,417.452 417.452,460 364.967,460 L147.033,460 C94.548,460 52,417.452 52,364.967 L52,147.033 C52,94.548 94.548,52 147.033,52 z" fill="url(#Gradient_1)"/>
    </g>
    <g>
      <path d="M256.5,117.426 L375.21,185.963 L375.21,323.037 L256.5,391.574 L137.79,323.037 L137.79,185.963 L256.5,117.426 z M256.5,154.145 C200.812,154.145 155.669,199.075 155.669,254.5 C155.669,309.924 200.812,354.855 256.5,354.855 C312.188,354.855 357.331,309.924 357.331,254.5 C357.331,199.075 312.188,154.145 256.5,154.145 z" fill="#FFFFFF"/>
      <path d="M256.5,117.426 L375.21,185.963 L375.21,323.037 L256.5,391.574 L137.79,323.037 L137.79,185.963 L256.5,117.426 z M256.5,154.145 C200.812,154.145 155.669,199.075 155.669,254.5 C155.669,309.924 200.812,354.855 256.5,354.855 C312.188,354.855 357.331,309.924 357.331,254.5 C357.331,199.075 312.188,154.145 256.5,154.145 z" fill-opacity="0" stroke="#FFFFFF" stroke-width="12"/>
      <path d="M125.79,102.497 L387.21,102.497 L387.21,406.502 L125.79,406.502 z M256.5,160.145 L261.38,160.268 C269.838,161.121 271.97,161.014 280.202,163.116 C321.616,173.692 351.13,211.86 351.331,254.5 C351.331,306.604 308.88,348.855 256.5,348.855 C204.12,348.855 161.669,306.604 161.669,254.5 C161.669,202.396 204.12,160.145 256.5,160.145 z M256.5,110.497 L253.5,112.229 L134.79,180.767 L131.79,182.499 L131.79,326.501 L134.79,328.233 L253.5,396.77 L256.5,398.502 L259.5,396.77 L378.21,328.233 L381.21,326.501 L381.21,182.499 L378.21,180.767 L259.5,112.229 L256.5,110.497 z" clip-path="url(#Clip_3)" filter="url(#InnerShadow_4)" fill="rgba(0,0,0,0.75)"/>
    </g>
  </g>
</svg>
