<?xml version="1.0" encoding="UTF-8"?>
<!DOCTYPE svg PUBLIC "-//W3C//DTD SVG 1.1//EN" "http://www.w3.org/Graphics/SVG/1.1/DTD/svg11.dtd">
<svg version="1.1" xmlns="http://www.w3.org/2000/svg" xmlns:xlink="http://www.w3.org/1999/xlink" x="0" y="0" width="512" height="512" viewBox="0, 0, 512, 512">
  <g id="Background">
    <rect x="0" y="0" width="512" height="512" fill="#FFFFFF"/>
    <g stroke-width="1px">
      <line x1="12" y1="0" x2="12" y2="512" stroke="#AAAAAA" stroke-opacity="0.25"/>
      <line x1="24" y1="0" x2="24" y2="512" stroke="#AAAAAA" stroke-opacity="0.25"/>
      <line x1="36" y1="0" x2="36" y2="512" stroke="#AAAAAA" stroke-opacity="0.25"/>
      <line x1="48" y1="0" x2="48" y2="512" stroke="#AAAAAA" stroke-opacity="0.25"/>
      <line x1="60" y1="0" x2="60" y2="512" stroke="#AAAAAA" stroke-opacity="0.25"/>
      <line x1="72" y1="0" x2="72" y2="512" stroke="#AAAAAA" stroke-opacity="0.5"/>
      <line x1="84" y1="0" x2="84" y2="512" stroke="#AAAAAA" stroke-opacity="0.25"/>
      <line x1="96" y1="0" x2="96" y2="512" stroke="#AAAAAA" stroke-opacity="0.25"/>
      <line x1="108" y1="0" x2="108" y2="512" stroke="#AAAAAA" stroke-opacity="0.25"/>
      <line x1="120" y1="0" x2="120" y2="512" stroke="#AAAAAA" stroke-opacity="0.25"/>
      <line x1="132" y1="0" x2="132" y2="512" stroke="#AAAAAA" stroke-opacity="0.25"/>
      <line x1="144" y1="0" x2="144" y2="512" stroke="#AAAAAA" stroke-opacity="0.5"/>
      <line x1="156" y1="0" x2="156" y2="512" stroke="#AAAAAA" stroke-opacity="0.25"/>
      <line x1="168" y1="0" x2="168" y2="512" stroke="#AAAAAA" stroke-opacity="0.25"/>
      <line x1="180" y1="0" x2="180" y2="512" stroke="#AAAAAA" stroke-opacity="0.25"/>
      <line x1="192" y1="0" x2="192" y2="512" stroke="#AAAAAA" stroke-opacity="0.25"/>
      <line x1="204" y1="0" x2="204" y2="512" stroke="#AAAAAA" stroke-opacity="0.25"/>
      <line x1="216" y1="0" x2="216" y2="512" stroke="#AAAAAA" stroke-opacity="0.5"/>
      <line x1="228" y1="0" x2="228" y2="512" stroke="#AAAAAA" stroke-opacity="0.25"/>
      <line x1="240" y1="0" x2="240" y2="512" stroke="#AAAAAA" stroke-opacity="0.25"/>
      <line x1="252" y1="0" x2="252" y2="512" stroke="#AAAAAA" stroke-opacity="0.25"/>
      <line x1="264" y1="0" x2="264" y2="512" stroke="#AAAAAA" stroke-opacity="0.25"/>
      <line x1="276" y1="0" x2="276" y2="512" stroke="#AAAAAA" stroke-opacity="0.25"/>
      <line x1="288" y1="0" x2="288" y2="512" stroke="#AAAAAA" stroke-opacity="0.5"/>
      <line x1="300" y1="0" x2="300" y2="512" stroke="#AAAAAA" stroke-opacity="0.25"/>
      <line x1="312" y1="0" x2="312" y2="512" stroke="#AAAAAA" stroke-opacity="0.25"/>
      <line x1="324" y1="0" x2="324" y2="512" stroke="#AAAAAA" stroke-opacity="0.25"/>
      <line x1="336" y1="0" x2="336" y2="512" stroke="#AAAAAA" stroke-opacity="0.25"/>
      <line x1="348" y1="0" x2="348" y2="512" stroke="#AAAAAA" stroke-opacity="0.25"/>
      <line x1="360" y1="0" x2="360" y2="512" stroke="#AAAAAA" stroke-opacity="0.5"/>
      <line x1="372" y1="0" x2="372" y2="512" stroke="#AAAAAA" stroke-opacity="0.25"/>
      <line x1="384" y1="0" x2="384" y2="512" stroke="#AAAAAA" stroke-opacity="0.25"/>
      <line x1="396" y1="0" x2="396" y2="512" stroke="#AAAAAA" stroke-opacity="0.25"/>
      <line x1="408" y1="0" x2="408" y2="512" stroke="#AAAAAA" stroke-opacity="0.25"/>
      <line x1="420" y1="0" x2="420" y2="512" stroke="#AAAAAA" stroke-opacity="0.25"/>
      <line x1="432" y1="0" x2="432" y2="512" stroke="#AAAAAA" stroke-opacity="0.5"/>
      <line x1="444" y1="0" x2="444" y2="512" stroke="#AAAAAA" stroke-opacity="0.25"/>
      <line x1="456" y1="0" x2="456" y2="512" stroke="#AAAAAA" stroke-opacity="0.25"/>
      <line x1="468" y1="0" x2="468" y2="512" stroke="#AAAAAA" stroke-opacity="0.25"/>
      <line x1="480" y1="0" x2="480" y2="512" stroke="#AAAAAA" stroke-opacity="0.25"/>
      <line x1="492" y1="0" x2="492" y2="512" stroke="#AAAAAA" stroke-opacity="0.25"/>
      <line x1="504" y1="0" x2="504" y2="512" stroke="#AAAAAA" stroke-opacity="0.5"/>
      <line x1="0" y1="12" x2="512" y2="12" stroke="#AAAAAA" stroke-opacity="0.25"/>
      <line x1="0" y1="24" x2="512" y2="24" stroke="#AAAAAA" stroke-opacity="0.25"/>
      <line x1="0" y1="36" x2="512" y2="36" stroke="#AAAAAA" stroke-opacity="0.25"/>
      <line x1="0" y1="48" x2="512" y2="48" stroke="#AAAAAA" stroke-opacity="0.25"/>
      <line x1="0" y1="60" x2="512" y2="60" stroke="#AAAAAA" stroke-opacity="0.25"/>
      <line x1="0" y1="72" x2="512" y2="72" stroke="#AAAAAA" stroke-opacity="0.5"/>
      <line x1="0" y1="84" x2="512" y2="84" stroke="#AAAAAA" stroke-opacity="0.25"/>
      <line x1="0" y1="96" x2="512" y2="96" stroke="#AAAAAA" stroke-opacity="0.25"/>
      <line x1="0" y1="108" x2="512" y2="108" stroke="#AAAAAA" stroke-opacity="0.25"/>
      <line x1="0" y1="120" x2="512" y2="120" stroke="#AAAAAA" stroke-opacity="0.25"/>
      <line x1="0" y1="132" x2="512" y2="132" stroke="#AAAAAA" stroke-opacity="0.25"/>
      <line x1="0" y1="144" x2="512" y2="144" stroke="#AAAAAA" stroke-opacity="0.5"/>
      <line x1="0" y1="156" x2="512" y2="156" stroke="#AAAAAA" stroke-opacity="0.25"/>
      <line x1="0" y1="168" x2="512" y2="168" stroke="#AAAAAA" stroke-opacity="0.25"/>
      <line x1="0" y1="180" x2="512" y2="180" stroke="#AAAAAA" stroke-opacity="0.25"/>
      <line x1="0" y1="192" x2="512" y2="192" stroke="#AAAAAA" stroke-opacity="0.25"/>
      <line x1="0" y1="204" x2="512" y2="204" stroke="#AAAAAA" stroke-opacity="0.25"/>
      <line x1="0" y1="216" x2="512" y2="216" stroke="#AAAAAA" stroke-opacity="0.5"/>
      <line x1="0" y1="228" x2="512" y2="228" stroke="#AAAAAA" stroke-opacity="0.25"/>
      <line x1="0" y1="240" x2="512" y2="240" stroke="#AAAAAA" stroke-opacity="0.25"/>
      <line x1="0" y1="252" x2="512" y2="252" stroke="#AAAAAA" stroke-opacity="0.25"/>
      <line x1="0" y1="264" x2="512" y2="264" stroke="#AAAAAA" stroke-opacity="0.25"/>
      <line x1="0" y1="276" x2="512" y2="276" stroke="#AAAAAA" stroke-opacity="0.25"/>
      <line x1="0" y1="288" x2="512" y2="288" stroke="#AAAAAA" stroke-opacity="0.5"/>
      <line x1="0" y1="300" x2="512" y2="300" stroke="#AAAAAA" stroke-opacity="0.25"/>
      <line x1="0" y1="312" x2="512" y2="312" stroke="#AAAAAA" stroke-opacity="0.25"/>
      <line x1="0" y1="324" x2="512" y2="324" stroke="#AAAAAA" stroke-opacity="0.25"/>
      <line x1="0" y1="336" x2="512" y2="336" stroke="#AAAAAA" stroke-opacity="0.25"/>
      <line x1="0" y1="348" x2="512" y2="348" stroke="#AAAAAA" stroke-opacity="0.25"/>
      <line x1="0" y1="360" x2="512" y2="360" stroke="#AAAAAA" stroke-opacity="0.5"/>
      <line x1="0" y1="372" x2="512" y2="372" stroke="#AAAAAA" stroke-opacity="0.25"/>
      <line x1="0" y1="384" x2="512" y2="384" stroke="#AAAAAA" stroke-opacity="0.25"/>
      <line x1="0" y1="396" x2="512" y2="396" stroke="#AAAAAA" stroke-opacity="0.25"/>
      <line x1="0" y1="408" x2="512" y2="408" stroke="#AAAAAA" stroke-opacity="0.25"/>
      <line x1="0" y1="420" x2="512" y2="420" stroke="#AAAAAA" stroke-opacity="0.25"/>
      <line x1="0" y1="432" x2="512" y2="432" stroke="#AAAAAA" stroke-opacity="0.5"/>
      <line x1="0" y1="444" x2="512" y2="444" stroke="#AAAAAA" stroke-opacity="0.25"/>
      <line x1="0" y1="456" x2="512" y2="456" stroke="#AAAAAA" stroke-opacity="0.25"/>
      <line x1="0" y1="468" x2="512" y2="468" stroke="#AAAAAA" stroke-opacity="0.25"/>
      <line x1="0" y1="480" x2="512" y2="480" stroke="#AAAAAA" stroke-opacity="0.25"/>
      <line x1="0" y1="492" x2="512" y2="492" stroke="#AAAAAA" stroke-opacity="0.25"/>
      <line x1="0" y1="504" x2="512" y2="504" stroke="#AAAAAA" stroke-opacity="0.5"/>
    </g>
  </g>
  <g id="Layer_1">
    <path d="M256.5,103.5 L73.5,144.5 C73.5,144.5 257.5,204.5 257.5,204.5 L431.5,146.5 C431.5,146.5 256.5,102.5 256.5,103.5 z" fill-opacity="0" stroke="#000000" stroke-width="1" display="none"/>
    <path d="M257.5,204.5 L256.5,433.5" fill-opacity="0" stroke="#000000" stroke-width="1" display="none"/>
    <path d="M431.5,146.5 L426.5,349.5 L256.5,433.5 L78.5,349.5 L73.5,144.5" fill-opacity="0" stroke="#000000" stroke-width="1" display="none"/>
    <g>
      <path d="M20.342,90.676 L258.985,168.494 L257.688,465.5 L26.827,356.555 L20.342,90.676 z" fill="#ACACAC"/>
      <path d="M20.342,90.676 L258.985,168.494 L257.688,465.5 L26.827,356.555 L20.342,90.676 z" fill-opacity="0" stroke="#000000" stroke-width="4"/>
    </g>
    <g>
      <path d="M258.985,168.494 L257.688,465.5 C257.688,465.5 478.173,356.555 478.173,356.555 C478.173,356.555 484.658,93.27 484.658,93.27 C484.658,93.27 258.985,168.494 258.985,168.494 z" fill="#E9E9E9"/>
      <path d="M258.985,168.494 L257.688,465.5 C257.688,465.5 478.173,356.555 478.173,356.555 C478.173,356.555 484.658,93.27 484.658,93.27 C484.658,93.27 258.985,168.494 258.985,168.494 z" fill-opacity="0" stroke="#000000" stroke-width="4"/>
    </g>
    <g>
      <path d="M257.688,37.5 C257.688,37.5 20.342,90.676 20.342,90.676 L258.985,168.494 C258.985,168.494 484.658,93.27 484.658,93.27 C484.658,93.27 257.688,37.5 257.688,37.5 z" fill="#FFFFFF"/>
      <path d="M257.688,37.5 C257.688,37.5 20.342,90.676 20.342,90.676 L258.985,168.494 C258.985,168.494 484.658,93.27 484.658,93.27 C484.658,93.27 257.688,37.5 257.688,37.5 z" fill-opacity="0" stroke="#000000" stroke-width="1"/>
    </g>
    <path d="M679.5,294.5" fill-opacity="0" stroke="#000000" stroke-width="1"/>
    <path d="M257.688,37.5 C257.688,37.5 20.342,90.676 20.342,90.676 C20.342,90.676 26.827,356.555 26.827,356.555 L257.688,465.5 L478.173,356.555 L484.658,93.27 L257.688,37.5 z" fill-opacity="0" stroke="#000000" stroke-width="10"/>
    <path d="M764.5,276.5" fill-opacity="0" stroke="#000000" stroke-width="1"/>
  </g>
</svg>
